<svg width="118" height="96" viewBox="0 0 118 96" fill="none" xmlns="http://www.w3.org/2000/svg">
<g clip-path="url(#clip0_2388_1664)">
<path fill-rule="evenodd" clip-rule="evenodd" d="M9.63367 39.7674H42.0668V55.7353H9.63367V39.7674Z" fill="#04A295"/>
<mask id="mask0_2388_1664" style="mask-type:luminance" maskUnits="userSpaceOnUse" x="0" y="0" width="52" height="37">
<path d="M0.457275 0.355621H51.2808V36.4492H0.457275V0.355621Z" fill="white"/>
</mask>
<g mask="url(#mask0_2388_1664)">
<path fill-rule="evenodd" clip-rule="evenodd" d="M9.63362 36.2888V28.0267H0.483887L25.8502 0.358294L51.2138 28.0267H42.0668V36.2888H9.63362Z" fill="#126274"/>
</g>
<path fill-rule="evenodd" clip-rule="evenodd" d="M9.63367 59.2139H42.0668V72.3262H9.63367V59.2139Z" fill="#E1BB1F"/>
<path fill-rule="evenodd" clip-rule="evenodd" d="M9.63367 75.8048H42.0668V85.4893H9.63367V75.8048Z" fill="#C6690B"/>
<mask id="mask1_2388_1664" style="mask-type:luminance" maskUnits="userSpaceOnUse" x="9" y="88" width="34" height="8">
<path d="M9.2406 88.4706H42.0962V95.8423H9.2406V88.4706Z" fill="white"/>
</mask>
<g mask="url(#mask1_2388_1664)">
<path fill-rule="evenodd" clip-rule="evenodd" d="M9.63367 88.9679H42.0668V95.6791H9.63367V88.9679Z" fill="#AE2012"/>
</g>
<path d="M46.5282 31.94H49.8544V45.2555H55.1378V48.5818H46.5282V31.94Z" fill="#1C1917"/>
<path d="M61.3267 48.5818H58.0005V31.94H61.3267V48.5818Z" fill="#1C1917"/>
<path d="M73.3847 35.2662H68.4008V38.5924H72.6361V41.9293H68.4008V48.5818H65.0746V31.94H73.3847V35.2662Z" fill="#1C1917"/>
<path d="M84.7376 48.5818H76.1279V31.94H84.4595V35.2662H79.4541V38.5924H83.8285V41.9293H79.4541V45.2555H84.7376V48.5818Z" fill="#1C1917"/>
<path d="M46.7992 55.5286H50.1254V68.8441H55.4088V72.1703H46.7992V55.5286Z" fill="#1C1917"/>
<path d="M66.8809 72.1703H58.2712V55.5286H66.6028V58.8548H61.5974V62.181H65.9718V65.5179H61.5974V68.8441H66.8809V72.1703Z" fill="#1C1917"/>
<path d="M75.1652 72.5233L68.2775 55.5286H72.117L74.3309 61.0687L75.5395 64.5126L76.7267 61.1864L78.962 55.5286H82.8015L75.9138 72.5233H75.1652Z" fill="#1C1917"/>
<path d="M93.4321 72.1703H84.8225V55.5286H93.1541V58.8548H88.1487V62.181H92.523V65.5179H88.1487V68.8441H93.4321V72.1703Z" fill="#1C1917"/>
<path d="M96.5505 55.5286H99.8767V68.8441H105.16V72.1703H96.5505V55.5286Z" fill="#1C1917"/>
<path d="M107.253 71.1008L107.67 67.6142C108.312 68.0634 108.945 68.3843 109.574 68.5768C110.199 68.7693 110.771 68.8843 111.285 68.919C111.798 68.9484 112.175 68.9564 112.418 68.9404C112.916 68.9056 113.341 68.7318 113.691 68.4163C114.039 68.0955 114.189 67.7105 114.14 67.2613C114.111 66.7773 113.932 66.4137 113.606 66.1703C113.285 65.9217 112.889 65.7185 112.418 65.5607C111.547 65.2345 110.734 64.8602 109.98 64.4377C109.231 64.0099 108.627 63.4805 108.172 62.8441C107.715 62.2024 107.488 61.419 107.488 60.4912C107.488 59.558 107.683 58.7158 108.076 57.9671C108.475 57.2131 109.031 56.6088 109.745 56.1597C110.456 55.7105 111.274 55.4618 112.194 55.411C112.627 55.3842 113.159 55.4003 113.787 55.4645C114.413 55.5233 115.263 55.7399 116.333 56.1169L115.916 59.3254C114.996 58.9564 114.263 58.7425 113.723 58.6837C113.18 58.6276 112.777 58.6088 112.515 58.6302C111.921 58.6597 111.491 58.8602 111.221 59.2292C110.948 59.6008 110.83 60.0206 110.868 60.4912C110.91 60.9564 111.108 61.3094 111.467 61.55C111.822 61.7853 112.242 61.9885 112.729 62.1597C113.59 62.4752 114.386 62.8602 115.114 63.3147C115.846 63.772 116.435 64.3254 116.878 64.9725C117.32 65.6142 117.541 66.3789 117.541 67.2613C117.541 68.1757 117.338 69.0046 116.932 69.7532C116.531 70.4966 115.953 71.0901 115.199 71.5393C114.451 71.9885 113.555 72.2452 112.515 72.3094C112.207 72.3228 111.782 72.3094 111.242 72.2666C110.707 72.2292 110.098 72.1249 109.413 71.9457C108.734 71.7693 108.015 71.4859 107.253 71.1008Z" fill="#1C1917"/>
<path d="M72.7248 94.8924H69.3986V81.5769H65.2595V78.2721H76.8638V81.5769H72.7248V94.8924Z" fill="#1C1917"/>
<path d="M87.9882 94.8924H79.3785V78.2507H87.7101V81.5769H82.7047V84.9031H87.0791V88.24H82.7047V91.5662H87.9882V94.8924Z" fill="#1C1917"/>
<path d="M101.695 82.1117C101.387 81.9406 101.013 81.7801 100.572 81.6304C100.128 81.4753 99.5397 81.3951 98.8071 81.3951C97.8659 81.3951 97.0584 81.5769 96.39 81.9406C95.7189 82.3042 95.1814 82.7908 94.775 83.3951C94.374 84.0021 94.1039 84.6652 93.9622 85.3844C93.8258 86.1063 93.8258 86.8283 93.9622 87.5555C94.1039 88.2775 94.374 88.9406 94.775 89.5448C95.1814 90.1438 95.7189 90.6304 96.39 90.9994C97.0584 91.363 97.8659 91.5448 98.8071 91.5448C99.5397 91.5448 100.181 91.4593 100.732 91.2882C101.28 91.117 101.711 90.9539 102.026 90.7962L102.465 94.24C101.951 94.4406 101.358 94.609 100.689 94.7427C100.026 94.871 99.398 94.9352 98.8071 94.9352C97.3953 94.9352 96.16 94.6999 95.1066 94.2293C94.0504 93.7587 93.1707 93.1224 92.4649 92.3149C91.759 91.5021 91.2296 90.5983 90.882 89.5983C90.5317 88.601 90.3579 87.5662 90.3579 86.4967C90.3579 85.4218 90.5317 84.3844 90.882 83.3844C91.2296 82.3871 91.759 81.486 92.4649 80.6785C93.1707 79.8657 94.0504 79.224 95.1066 78.7534C96.16 78.2828 97.3953 78.0475 98.8071 78.0475C100.018 78.0475 101.112 78.2668 102.091 78.6999L101.695 82.1117Z" fill="#1C1917"/>
<path d="M116.752 94.8924H113.425V88.24H108.441V94.8924H105.115V78.2507H108.441V84.9031H113.425V78.2507H116.752V94.8924Z" fill="#1C1917"/>
</g>
<defs>
<clipPath id="clip0_2388_1664">
<rect width="117.561" height="96" fill="white"/>
</clipPath>
</defs>
</svg>
